<?xml version="1.0" encoding="utf-8"?>
<!-- Generator: Adobe Illustrator 18.1.1, SVG Export Plug-In . SVG Version: 6.00 Build 0)  -->
<svg version="1.1" xmlns="http://www.w3.org/2000/svg" xmlns:xlink="http://www.w3.org/1999/xlink" x="0px" y="0px"
	 viewBox="0 0 448.5 330" enable-background="new 0 0 448.5 330" xml:space="preserve">
<g id="calamity-small" display="none">
	<text transform="matrix(1 0 0 1 67.7405 176.5636)" display="inline"><tspan x="0" y="0" font-family="'CalamityJaneNF-Bold'" font-size="20">E ncontro</tspan><tspan x="60.9" y="0" font-family="'CalamityJaneNF-Bold'" font-size="20"> </tspan><tspan x="66.4" y="0" font-family="'CalamityJaneNF-Bold'" font-size="20">Internacional</tspan><tspan x="150" y="0" font-family="'CalamityJaneNF-Bold'" font-size="20"> </tspan><tspan x="155.1" y="0" font-family="'CalamityJaneNF-Bold'" font-size="20">de</tspan><tspan x="169.9" y="0" font-family="'CalamityJaneNF-Bold'" font-size="20"> </tspan><tspan x="175.4" y="0" font-family="'CalamityJaneNF-Bold'" font-size="20">Pianistas</tspan><tspan x="234.5" y="0" font-family="'CalamityJaneNF-Bold'" font-size="20"> </tspan><tspan x="240" y="0" font-family="'CalamityJaneNF-Bold'" font-size="20">de</tspan><tspan x="254.7" y="0" font-family="'CalamityJaneNF-Bold'" font-size="20"> </tspan><tspan x="260.2" y="0" font-family="'CalamityJaneNF-Bold'" font-size="20">Piracicaba</tspan></text>
</g>
<g id="calamity-large" display="none">
	<text transform="matrix(1 0 0 1 68.7405 170.5636)" display="inline"><tspan x="0" y="0" font-family="'CalamityJaneNF-Bold'" font-size="34" letter-spacing="1">E</tspan><tspan x="14.8" y="0" font-family="'CalamityJaneNF-Bold'" font-size="34"> </tspan><tspan x="22.7" y="0" font-family="'CalamityJaneNF-Bold'" font-size="34" letter-spacing="1">ncontro Internacional</tspan><tspan x="276" y="0" font-family="'CalamityJaneNF-Bold'" font-size="42" letter-spacing="1"> </tspan><tspan x="0" y="34.8" font-family="'CalamityJaneNF-Bold'" font-size="34" letter-spacing="1">de</tspan><tspan x="27.2" y="34.8" font-family="'CalamityJaneNF-Bold'" font-size="23">   </tspan><tspan x="45.4" y="34.8" font-family="'CalamityJaneNF-Bold'" font-size="34" letter-spacing="1">Pianistas de Piracicaba</tspan></text>
</g>
<g id="odalisque" display="none">
	<text transform="matrix(1 0 0 1 63.7406 175.2918)" display="inline"><tspan x="0" y="0" font-family="'OdalisqueNF'" font-size="19">Encontro Internacional</tspan><tspan x="301.8" y="0" font-family="'OdalisqueNF'" font-size="19"> </tspan><tspan x="0" y="26.8" font-family="'OdalisqueNF'" font-size="19">de Pianistas de Piracicaba</tspan></text>
</g>
<g id="Layer_9" display="none">
	<text transform="matrix(1 0 0 1 63.7406 175.0564)" display="inline"><tspan x="0" y="0" font-family="'Copperplate-Light'" font-size="23">Encontro Internacional</tspan><tspan x="305.9" y="0" font-family="'Copperplate-Light'" font-size="23"> </tspan><tspan x="0" y="26.8" font-family="'Copperplate-Light'" font-size="23">de Pianistas de Piracicaba</tspan></text>
</g>
<g id="outline" display="none">
	<g display="inline">
		<path fill="none" stroke="#000000" stroke-width="3" stroke-miterlimit="10" d="M42.9,237.2V183c0,0-2.5-60.9,56.2-62.6
			c41.6-2.2,53.4,11.1,112.5-77.7c0,0,32.1-48.4,87-45.6c0,0,31.9,0.8,51.9,20.7c0,0,15.7,11.5,17,40.6l1.4,178.8"/>
	</g>
</g>
<g id="bgBlack">
	<rect x="0" y="0" fill="#1B1B1C" stroke="#FCFAFC" stroke-width="3" stroke-miterlimit="10" width="448.5" height="330"/>
</g>
<g id="outline_skewed">
	<g>
		<path fill="none" stroke="#FCFAFC" stroke-width="3" stroke-miterlimit="10" d="M35.2,276.1l-12.1-43.7c0,0-18.9-56.9,52.6-58.7
			c50.8-2.2,66.6,11.2,138.4-88.8c0,0,48-67.1,129.1-62.8c0,0,47.1,1.1,69.9,29.7c0,0,18.4,15.6,10.3,52.8l-44.1,171.5"/>
	</g>
</g>
<g id="solid_curve" display="none">
</g>
<g id="outline_straight" display="none">
	<g display="inline">
		<path fill="#020202" stroke="#000000" stroke-width="3" stroke-miterlimit="10" d="M376,252.2l-1.4-183.8
			c-1.3-29.1-17.7-40.6-17.7-40.6C336.1,7.8,294.3,7.2,294.3,7.2C173.9,5.4,36.9,193,36.9,193v59.2H376z"/>
	</g>
</g>
<g id="solid_straight">
</g>
<g id="keyboard_1_" display="none">
	<g display="inline">
		<g>
			<rect x="133.3" y="259.3" fill="#231F20" stroke="#231F20" width="7.7" height="33"/>
			<rect x="191.6" y="259.3" fill="#231F20" stroke="#231F20" width="7.7" height="33"/>
			<rect x="178.9" y="259.3" fill="#231F20" stroke="#231F20" width="7.7" height="33"/>
			<rect x="166.2" y="259.4" fill="#231F20" stroke="#231F20" width="7.7" height="33"/>
			<rect x="146.2" y="259.2" fill="#231F20" stroke="#231F20" width="7.7" height="33"/>
		</g>
		<g>
			<rect x="290.5" y="259.3" fill="#231F20" stroke="#231F20" width="7.7" height="33"/>
			<rect x="348.8" y="259.3" fill="#231F20" stroke="#231F20" width="7.7" height="33"/>
			<rect x="336.1" y="259.3" fill="#231F20" stroke="#231F20" width="7.7" height="33"/>
			<rect x="323.4" y="259.4" fill="#231F20" stroke="#231F20" width="7.7" height="33"/>
			<rect x="303.4" y="259.2" fill="#231F20" stroke="#231F20" width="7.7" height="33"/>
		</g>
		<g>
			<rect x="54.4" y="259.3" fill="#231F20" stroke="#231F20" width="7.7" height="33"/>
			<rect x="112.8" y="259.3" fill="#231F20" stroke="#231F20" width="7.7" height="33"/>
			<rect x="100.1" y="259.3" fill="#231F20" stroke="#231F20" width="7.7" height="33"/>
			<rect x="87.3" y="259.3" fill="#231F20" stroke="#231F20" width="7.7" height="33"/>
			<rect x="67.3" y="259.2" fill="#231F20" stroke="#231F20" width="7.7" height="33"/>
		</g>
		<g>
			<rect x="212" y="258.9" fill="#231F20" stroke="#231F20" width="7.7" height="33"/>
			<rect x="270.3" y="258.9" fill="#231F20" stroke="#231F20" width="7.7" height="33"/>
			<rect x="257.6" y="258.9" fill="#231F20" stroke="#231F20" width="7.7" height="33"/>
			<rect x="244.9" y="259" fill="#231F20" stroke="#231F20" width="7.7" height="33"/>
			<rect x="224.9" y="258.8" fill="#231F20" stroke="#231F20" width="7.7" height="33"/>
		</g>
	</g>
</g>
<g id="keyboard_larger">
	<g>
		<g>
			<rect x="163.6" y="271.3" fill="#F9F9FA" stroke="#231F20" width="10.4" height="33"/>
			<rect x="242.1" y="271.3" fill="#F9F9FA" stroke="#231F20" width="10.4" height="33"/>
			<rect x="225" y="271.3" fill="#F9F9FA" stroke="#231F20" width="10.4" height="33"/>
			<rect x="207.9" y="271.4" fill="#F9F9FA" stroke="#231F20" width="10.4" height="33"/>
			<rect x="181" y="271.2" fill="#F9F9FA" stroke="#231F20" width="10.4" height="33"/>
		</g>
		<g>
			<g>
				<rect x="54.9" y="271.3" fill="#F9F9FA" stroke="#231F20" width="10.4" height="33"/>
				<rect x="133.4" y="271.3" fill="#F9F9FA" stroke="#231F20" width="10.4" height="33"/>
				<rect x="116.3" y="271.3" fill="#F9F9FA" stroke="#231F20" width="10.4" height="33"/>
				<rect x="99.2" y="271.3" fill="#F9F9FA" stroke="#231F20" width="10.4" height="33"/>
				<rect x="72.3" y="271.2" fill="#F9F9FA" stroke="#231F20" width="10.4" height="33"/>
			</g>
			<g>
				<rect x="272.2" y="270.9" fill="#F9F9FA" stroke="#231F20" width="10.4" height="33"/>
				<rect x="350.7" y="270.9" fill="#F9F9FA" stroke="#231F20" width="10.4" height="33"/>
				<rect x="333.6" y="270.9" fill="#F9F9FA" stroke="#231F20" width="10.4" height="33"/>
				<rect x="316.5" y="271" fill="#F9F9FA" stroke="#231F20" width="10.4" height="33"/>
				<rect x="289.6" y="270.8" fill="#F9F9FA" stroke="#231F20" width="10.4" height="33"/>
			</g>
		</g>
	</g>
</g>
<g id="keyboard_longer" display="none">
	<g display="inline">
		<path d="M36.8,246.7v-56.3c0,0-4.2-67.9,57.6-69.7c47-2.2,56.2,11.6,118.4-80.8c0,0,33.7-50.3,91.5-47.3c0,0,70.2-1.1,74.1,68.3
			l1.5,185.8"/>
	</g>
	<g display="inline">
		<g>
			<g>
				<rect x="37.8" y="253.3" fill="#231F20" stroke="#231F20" width="9.1" height="33"/>
				<rect x="104.8" y="253.3" fill="#231F20" stroke="#231F20" width="9.1" height="33"/>
				<rect x="89.8" y="253.3" fill="#231F20" stroke="#231F20" width="9.1" height="33"/>
				<rect x="74.7" y="253.3" fill="#231F20" stroke="#231F20" width="9.1" height="33"/>
				<rect x="53.1" y="253.2" fill="#231F20" stroke="#231F20" width="9.1" height="33"/>
			</g>
			<g>
				<rect x="126" y="253.3" fill="#231F20" stroke="#231F20" width="9.1" height="33"/>
				<rect x="193" y="253.3" fill="#231F20" stroke="#231F20" width="9.1" height="33"/>
				<rect x="178" y="253.3" fill="#231F20" stroke="#231F20" width="9.1" height="33"/>
				<rect x="162.9" y="253.3" fill="#231F20" stroke="#231F20" width="9.1" height="33"/>
				<rect x="141.3" y="253.2" fill="#231F20" stroke="#231F20" width="9.1" height="33"/>
			</g>
		</g>
		<g>
			<g>
				<rect x="214.7" y="253.3" fill="#231F20" stroke="#231F20" width="9.1" height="33"/>
				<rect x="281.7" y="253.3" fill="#231F20" stroke="#231F20" width="9.1" height="33"/>
				<rect x="266.7" y="253.3" fill="#231F20" stroke="#231F20" width="9.1" height="33"/>
				<rect x="251.6" y="253.3" fill="#231F20" stroke="#231F20" width="9.1" height="33"/>
				<rect x="230" y="253.2" fill="#231F20" stroke="#231F20" width="9.1" height="33"/>
			</g>
			<g>
				<rect x="302.9" y="253.3" fill="#231F20" stroke="#231F20" width="9.1" height="33"/>
				<rect x="369.9" y="253.3" fill="#231F20" stroke="#231F20" width="9.1" height="33"/>
				<rect x="354.8" y="253.3" fill="#231F20" stroke="#231F20" width="9.1" height="33"/>
				<rect x="339.8" y="253.3" fill="#231F20" stroke="#231F20" width="9.1" height="33"/>
				<rect x="318.2" y="253.2" fill="#231F20" stroke="#231F20" width="9.1" height="33"/>
			</g>
		</g>
	</g>
</g>
<g id="daniel" display="none">
	<text transform="matrix(1 0 0 1 51.83 221.7231)" display="inline"><tspan x="0" y="0" stroke="#231F20" font-family="'DanielBold'" font-size="21" letter-spacing="2">II</tspan><tspan x="13.4" y="0" stroke="#231F20" font-family="'DanielBold'" font-size="21" letter-spacing="1"> </tspan><tspan x="24.9" y="0" stroke="#231F20" font-family="'DanielBold'" font-size="21" letter-spacing="2">Encontro</tspan><tspan x="146.6" y="0" stroke="#231F20" font-family="'DanielBold'" font-size="21" letter-spacing="2"> </tspan><tspan x="159.6" y="0" stroke="#231F20" font-family="'DanielBold'" font-size="21" letter-spacing="2">Internacional</tspan><tspan x="318.7" y="0" stroke="#231F20" font-family="'DanielBold'" font-size="21" letter-spacing="1"> </tspan><tspan x="0" y="30.8" stroke="#231F20" font-family="'DanielBold'" font-size="21" letter-spacing="1">de Pianistas de Piracicaba</tspan></text>
</g>
<g id="daniel_white" display="none">
	<text transform="matrix(1 0 0 1 75.83 197.7231)" display="inline"><tspan x="0" y="0" fill="#FFFFFF" font-family="'Daniel'" font-size="19" letter-spacing="1">II</tspan><tspan x="12" y="0" fill="#FFFFFF" font-family="'Daniel'" font-size="19"> </tspan><tspan x="21" y="0" fill="#FFFFFF" font-family="'Daniel'" font-size="19" letter-spacing="1">Encontro</tspan><tspan x="120.7" y="0" fill="#FFFFFF" font-family="'Daniel'" font-size="19" letter-spacing="2"> </tspan><tspan x="131" y="0" fill="#FFFFFF" font-family="'Daniel'" font-size="19" letter-spacing="1">Internacional</tspan><tspan x="266.5" y="0" fill="#FFFFFF" font-family="'Daniel'" font-size="19" letter-spacing="1"> </tspan><tspan x="0" y="30.8" fill="#FFFFFF" font-family="'Daniel'" font-size="19" letter-spacing="1">de Pianistas de Piracicaba</tspan></text>
</g>
<g id="daniel_white_larger" display="none">
	<text transform="matrix(1 0 0 1 51.83 190.7231)" display="inline"><tspan x="0" y="0" fill="#FFFFFF" font-family="'DanielBold'" font-size="21" letter-spacing="1">II</tspan><tspan x="12.6" y="0" fill="#FFFFFF" font-family="'DanielBold'" font-size="21"> </tspan><tspan x="23.7" y="0" fill="#FFFFFF" font-family="'DanielBold'" font-size="21" letter-spacing="1">Encontro</tspan><tspan x="142" y="0" fill="#FFFFFF" font-family="'DanielBold'" font-size="21" letter-spacing="2"> </tspan><tspan x="154.6" y="0" fill="#FFFFFF" font-family="'DanielBold'" font-size="21" letter-spacing="1">Internacional </tspan><tspan x="0" y="32.8" fill="#FFFFFF" font-family="'DanielBold'" font-size="21" letter-spacing="1">de Pianistas de Piracicaba</tspan></text>
</g>
<g id="copperplate" display="none">
	<text transform="matrix(1 0 0 1 54.83 230.7231)" display="inline"><tspan x="0" y="0" font-family="'Copperplate'" font-size="19" letter-spacing="2">II</tspan><tspan x="16.8" y="0" font-family="'Copperplate'" font-size="19" letter-spacing="1"> </tspan><tspan x="23.8" y="0" font-family="'Copperplate'" font-size="19" letter-spacing="2">Encontro</tspan><tspan x="133.4" y="0" font-family="'Copperplate'" font-size="19" letter-spacing="2"> </tspan><tspan x="141.7" y="0" font-family="'Copperplate'" font-size="19" letter-spacing="2">Internacional</tspan><tspan x="305" y="0" font-family="'Copperplate'" font-size="19" letter-spacing="1"> </tspan><tspan x="0" y="20.8" font-family="'Copperplate'" font-size="19" letter-spacing="2">de Pianistas de Piracicaba</tspan></text>
</g>
<g id="copperplate_white" display="none">
	<text transform="matrix(1 0 0 1 62.8418 201.7231)" display="inline"><tspan x="0" y="0" fill="#FFFFFF" font-family="'Copperplate-Light'" font-size="18" letter-spacing="2">II</tspan><tspan x="16.3" y="0" fill="#FFFFFF" font-family="'Copperplate-Light'" font-size="18" letter-spacing="1"> </tspan><tspan x="23.1" y="0" fill="#FFFFFF" font-family="'Copperplate-Light'" font-size="18" letter-spacing="2">Encontro</tspan><tspan x="128.4" y="0" fill="#FFFFFF" font-family="'Copperplate-Light'" font-size="18" letter-spacing="2"> </tspan><tspan x="136.4" y="0" fill="#FFFFFF" font-family="'Copperplate-Light'" font-size="18" letter-spacing="2">Internacional</tspan><tspan x="294.5" y="0" fill="#FFFFFF" font-family="'Copperplate-Light'" font-size="18" letter-spacing="1"> </tspan><tspan x="0" y="22.8" fill="#FFFFFF" font-family="'Copperplate-Light'" font-size="18" letter-spacing="1">de</tspan><tspan x="26" y="22.8" fill="#FFFFFF" font-family="'Copperplate-Light'" font-size="18" letter-spacing="2"> </tspan><tspan x="33.8" y="22.8" fill="#FFFFFF" font-family="'Copperplate-Light'" font-size="18" letter-spacing="1">Pianistas</tspan><tspan x="136.7" y="22.8" fill="#FFFFFF" font-family="'Copperplate-Light'" font-size="18" letter-spacing="2"> </tspan><tspan x="144.9" y="22.8" fill="#FFFFFF" font-family="'Copperplate-Light'" font-size="18" letter-spacing="1">de</tspan><tspan x="170.8" y="22.8" fill="#FFFFFF" font-family="'Copperplate-Light'" font-size="18" letter-spacing="2"> </tspan><tspan x="179" y="22.8" fill="#FFFFFF" font-family="'Copperplate-Light'" font-size="18" letter-spacing="1">Piracicaba</tspan></text>
</g>
</svg>
